<svg width="93" height="93" viewBox="0 0 93 93" fill="none" xmlns="http://www.w3.org/2000/svg">
<path d="M52.4512 87.1435L60.3792 79.2155C62.5341 77.061 62.6402 74.4004 60.4857 72.2455C58.3307 70.0905 55.7234 70.197 53.5418 72.3786L49.4183 76.5022L16.4033 43.4872L20.5269 39.3634C22.6818 37.2086 22.7882 34.5482 20.6333 32.3933C18.4784 30.2384 15.8713 30.3448 13.6898 32.5263L5.7619 40.4542C2.40983 43.8063 2.40983 47.5841 5.73527 50.9095L41.9959 87.1701C45.3214 90.4956 49.0991 90.4956 52.4512 87.1435ZM86.8764 52.7183C90.2285 49.3662 90.2285 45.5889 86.903 42.2634L50.642 6.0025C47.317 2.67704 43.5392 2.67704 40.187 6.02909L32.2591 13.957C30.1042 16.1119 29.9978 18.719 32.1527 20.8739C34.3076 23.0288 36.9414 22.949 39.0963 20.7941L43.2196 16.6705L76.235 49.6858L72.1115 53.8093C69.9565 55.9639 69.85 58.5712 72.005 60.7262C74.16 62.8811 76.7935 62.8013 78.9484 60.6463L86.8764 52.7183Z" fill="#111827"/>
</svg>
