<svg width="93" height="114" viewBox="0 0 93 114" fill="none" xmlns="http://www.w3.org/2000/svg">
<path d="M52.2067 107.632L60.1347 99.7038C62.2896 97.5493 62.3957 94.8887 60.2412 92.7337C58.0862 90.5788 55.4789 90.6853 53.2973 92.8669L49.1738 96.9904L16.1588 63.9754L20.2824 59.8517C22.4373 57.6968 22.5437 55.0365 20.3888 52.8816C18.2339 50.7267 15.6268 50.8331 13.4453 53.0146L5.51739 60.9425C2.16532 64.2946 2.16532 68.0724 5.49076 71.3978L41.7514 107.658C45.0768 110.984 48.8546 110.984 52.2067 107.632ZM86.6319 73.2066C89.984 69.8545 89.984 66.0772 86.6585 62.7517L50.3975 26.4908C47.0725 23.1653 43.2947 23.1653 39.9425 26.5174L32.0146 34.4453C29.8597 36.6002 29.7533 39.2073 31.9082 41.3622C34.0631 43.5171 36.6968 43.4373 38.8517 41.2824L42.9751 37.1588L75.9905 70.1741L71.867 74.2976C69.712 76.4522 69.6055 79.0595 71.7605 81.2145C73.9155 83.3694 76.549 83.2895 78.7039 81.1346L86.6319 73.2066Z" fill="#111827"/>
</svg>
