<?xml version="1.0" encoding="utf-8" ?>
<svg baseProfile="tiny" height="100%" version="1.2" width="100%" xmlns="http://www.w3.org/2000/svg" xmlns:ev="http://www.w3.org/2001/xml-events" xmlns:xlink="http://www.w3.org/1999/xlink"><defs /><path d="M 12,23 L 10,25 L 10,26 L 9,27 L 9,28 L 22,41 L 23,41 L 24,40 L 25,40 L 27,38 L 27,36 L 25,36 L 24,37 L 23,37 L 13,27 L 13,26 L 14,25 L 14,23 Z" fill="black" /><path d="M 22,14 L 21,15 L 20,15 L 18,17 L 18,19 L 20,19 L 21,18 L 22,18 L 32,28 L 32,29 L 31,30 L 31,32 L 33,32 L 35,30 L 35,29 L 36,28 L 35,27 L 35,26 L 24,15 L 23,15 Z" fill="black" /></svg>