<svg width="743" height="700" viewBox="0 0 743 700" fill="none" xmlns="http://www.w3.org/2000/svg">
<g clip-path="url(#clip0_3764_10395)">
<g filter="url(#filter0_dddd_3764_10395)">
<path d="M370.718 70.286C364.63 64.6323 358.551 59.3369 352.508 54.4257C331.033 36.9719 309.158 23.6751 288.162 16.8829C267.181 10.0953 244.602 9.12099 224.95 20.4671C205.298 31.8133 194.852 51.8543 190.24 73.4183C185.624 94.9969 186.202 120.59 190.58 147.915C191.812 155.604 193.358 163.516 195.21 171.615C187.263 174.063 179.631 176.681 172.351 179.461C146.498 189.332 124.045 201.629 107.665 216.415C91.2958 231.192 79.1626 250.258 79.1626 272.95C79.1626 295.643 91.2958 314.709 107.665 329.486C124.045 344.272 146.498 356.569 172.351 366.44C179.632 369.22 187.263 371.838 195.211 374.286C193.359 382.387 191.812 390.3 190.58 397.99C186.202 425.315 185.624 450.909 190.24 472.487C194.852 494.051 205.298 514.092 224.95 525.438C244.602 536.785 267.181 535.81 288.162 529.023C309.157 522.23 331.033 508.934 352.508 491.48C358.551 486.569 364.629 481.273 370.718 475.619C376.813 481.28 382.898 486.581 388.947 491.498C410.422 508.951 432.298 522.248 453.294 529.04C474.275 535.828 496.854 536.802 516.506 525.456C536.158 514.11 546.603 494.069 551.216 472.505C555.831 450.926 555.254 425.333 550.876 398.008C549.643 390.311 548.094 382.391 546.239 374.282C554.182 371.835 561.809 369.218 569.086 366.44C594.939 356.569 617.392 344.272 633.772 329.486C650.141 314.709 662.274 295.643 662.274 272.95C662.274 250.258 650.141 231.191 633.772 216.415C617.392 201.629 594.939 189.332 569.086 179.461C561.809 176.683 554.183 174.066 546.24 171.619C548.094 163.512 549.643 155.593 550.876 147.897C555.254 120.572 555.831 94.9791 551.215 73.4003C546.603 51.8364 536.158 31.7954 516.505 20.4492C496.853 9.10309 474.275 10.0774 453.293 16.865C432.298 23.6572 410.422 36.954 388.947 54.4078C382.898 59.3242 376.813 64.6256 370.718 70.286Z" fill="white" stroke="white" stroke-width="20"/>
<path d="M370.717 375.657C519.455 375.657 640.031 329.619 640.031 272.828C640.031 216.037 519.455 169.999 370.717 169.999C221.979 169.999 101.403 216.037 101.403 272.828C101.403 329.619 221.979 375.657 370.717 375.657Z" stroke="#61DAFB" stroke-width="24.4831"/>
<path d="M281.674 324.254C356.043 453.065 456.201 534.468 505.383 506.073C554.566 477.677 534.148 350.236 459.779 221.425C385.41 92.6145 285.252 11.2117 236.069 39.6072C186.887 68.0026 207.305 195.444 281.674 324.254Z" stroke="#61DAFB" stroke-width="24.4831"/>
<path d="M281.674 221.406C207.305 350.217 186.887 477.658 236.069 506.054C285.252 534.449 385.41 453.046 459.779 324.235C534.148 195.424 554.566 67.9835 505.383 39.588C456.201 11.1926 356.043 92.5954 281.674 221.406Z" stroke="#61DAFB" stroke-width="24.4831"/>
<path d="M370.722 323.076C398.441 323.076 420.912 300.605 420.912 272.886C420.912 245.166 398.441 222.695 370.722 222.695C343.002 222.695 320.531 245.166 320.531 272.886C320.531 300.605 343.002 323.076 370.722 323.076Z" fill="#61DAFB"/>
</g>
<g filter="url(#filter1_dddd_3764_10395)">
<mask id="path-4-outside-1_3764_10395" maskUnits="userSpaceOnUse" x="246.862" y="312.573" width="415.869" height="261.768" fill="black">
<rect fill="white" x="246.862" y="312.573" width="415.869" height="261.768"/>
<path d="M289.764 461.262C283.431 462.124 277.598 457.688 276.737 451.355L271.87 415.574C269.249 396.3 282.749 378.551 302.022 375.929V375.929C308.565 375.04 314.385 375.446 319.483 377.148C324.576 378.814 328.701 381.622 331.859 385.572C335.048 389.481 337.043 394.376 337.843 400.256C338.617 405.953 337.927 411.063 335.772 415.587C333.654 420.105 330.269 423.841 325.617 426.794C320.997 429.706 315.287 431.624 308.488 432.549L297.792 434.004C292.89 434.671 288.375 431.237 287.709 426.335V426.335C287.042 421.433 290.475 416.918 295.378 416.251L305.577 414.864C307.893 414.549 309.82 413.857 311.359 412.786C312.935 411.711 314.079 410.358 314.793 408.726C315.507 407.094 315.729 405.285 315.459 403.301C315.184 401.279 314.487 399.596 313.369 398.251C312.245 396.869 310.78 395.87 308.974 395.255C307.205 394.634 305.163 394.481 302.848 394.796V394.796C297.184 395.567 293.218 400.782 293.988 406.446L299.672 448.235C300.533 454.569 296.097 460.401 289.764 461.262V461.262ZM330.506 455.721C326.395 456.28 322.329 454.431 320.048 450.966L310.187 435.984C305.859 429.408 309.878 420.568 317.678 419.507V419.507C321.719 418.958 325.721 420.754 327.995 424.139L338 439.027C342.451 445.65 338.413 454.646 330.506 455.721V455.721Z"/>
<path d="M379.422 450.416C373.395 451.236 367.872 450.677 362.854 448.739C357.831 446.764 353.685 443.659 350.413 439.425C347.179 435.186 345.159 430.107 344.355 424.19C343.545 418.235 344.135 412.802 346.124 407.89C348.109 402.94 351.205 398.869 355.413 395.677C359.652 392.442 364.749 390.42 370.703 389.61C375.187 389.001 379.385 389.178 383.298 390.144C387.205 391.072 390.701 392.693 393.785 395.006C396.865 397.283 399.388 400.14 401.353 403.579C403.354 407.013 404.653 410.916 405.248 415.29V415.29C405.691 418.548 403.409 421.548 400.151 421.992L357.755 427.758C354.344 428.222 351.204 425.833 350.74 422.423L350.474 420.464C350.157 418.135 351.788 415.991 354.116 415.675L385.155 411.453C386.31 411.296 386.711 412.937 385.613 413.33V413.33C385.032 413.538 384.409 413.157 384.278 412.554C383.944 411.019 383.39 409.719 382.615 408.654C381.643 407.289 380.388 406.318 378.849 405.741C377.311 405.164 375.513 405.016 373.454 405.296C371.433 405.571 369.739 406.194 368.374 407.166C367.046 408.133 366.096 409.404 365.524 410.979C364.947 412.517 364.798 414.315 365.078 416.374L366.405 426.132C366.695 428.264 367.35 430.046 368.368 431.48C369.423 432.909 370.778 433.923 372.432 434.521C374.122 435.115 376.052 435.264 378.22 434.969C379.8 434.754 381.188 434.36 382.383 433.785C383.614 433.206 384.621 432.489 385.403 431.634V431.634C386.744 430.095 388.295 428.489 390.317 428.214L394.557 427.638C400.779 426.791 406.254 432.098 402.676 437.258V437.258C400.298 440.689 397.097 443.576 393.073 445.92C389.082 448.222 384.531 449.721 379.422 450.416Z"/>
<path d="M435.454 442.514C431.558 443.044 428.036 442.887 424.889 442.042C421.742 441.197 419.151 439.622 417.115 437.316C415.08 435.01 413.799 431.927 413.274 428.068C412.83 424.797 413.024 421.963 413.859 419.566C414.688 417.132 416.016 415.061 417.843 413.353C419.701 411.602 421.94 410.175 424.56 409.07C427.175 407.928 430.029 407.035 433.124 406.389C436.512 405.704 439.21 405.037 441.218 404.39C443.258 403.701 444.693 402.963 445.522 402.176C446.35 401.39 446.692 400.463 446.547 399.397L446.517 399.177C446.402 398.332 446.027 397.634 445.39 397.084C444.754 396.534 443.917 396.161 442.88 395.966C441.874 395.728 440.692 395.702 439.332 395.887C437.898 396.082 436.676 396.454 435.665 397.003C434.691 397.547 433.965 398.264 433.487 399.152V399.152C432.602 400.712 431.444 402.35 429.667 402.592L423.709 403.402C417.711 404.218 411.887 399.448 414.486 393.981C414.611 393.719 414.741 393.46 414.878 393.204C416.663 389.817 419.488 387.056 423.353 384.92C427.25 382.743 432.175 381.25 438.129 380.44C442.613 379.83 446.627 379.752 450.17 380.206C453.745 380.619 456.81 381.549 459.366 382.999C461.958 384.443 464.017 386.371 465.543 388.784C467.064 391.16 468.05 394.002 468.499 397.31L472.331 425.483C473.139 431.42 468.98 436.888 463.043 437.695L456.372 438.603C454.118 438.909 452.043 437.331 451.737 435.078L451.201 431.137C451.191 431.06 451.12 431.006 451.043 431.017V431.017C450.993 431.024 450.95 431.058 450.931 431.105C449.965 433.561 448.755 435.573 447.301 437.141C445.827 438.689 444.098 439.879 442.115 440.71C440.174 441.573 437.953 442.175 435.454 442.514ZM440.754 427.812C442.334 427.597 443.82 427.095 445.21 426.307C446.632 425.478 447.741 424.41 448.536 423.104C449.332 421.798 449.612 420.281 449.377 418.553L448.999 415.771C448.875 414.861 447.896 414.338 447.058 414.713V414.713C446.495 414.977 445.877 415.248 445.204 415.527C444.525 415.769 443.776 416.04 442.956 416.338C442.13 416.6 441.215 416.893 440.211 417.217C438.739 417.679 437.487 418.243 436.454 418.907C435.459 419.567 434.719 420.322 434.236 421.174C433.753 422.026 433.579 422.948 433.714 423.94C433.849 424.933 434.242 425.759 434.893 426.419C435.539 427.042 436.365 427.473 437.371 427.711C438.377 427.948 439.504 427.982 440.754 427.812Z"/>
<path d="M512.345 432.338C506.133 433.182 500.521 432.654 495.508 430.753C490.496 428.852 486.375 425.8 483.145 421.597C479.948 417.353 477.936 412.198 477.112 406.134C476.287 400.069 476.851 394.583 478.804 389.676C480.789 384.727 483.942 380.667 488.265 377.496C492.588 374.325 497.855 372.317 504.067 371.472C508.33 370.892 512.33 370.985 516.065 371.75C519.832 372.473 523.175 373.796 526.094 375.72C529.046 377.602 531.487 380.003 533.419 382.922V382.922C536.689 387.814 532.452 393.554 526.621 394.347L519.827 395.271C517.799 395.547 515.995 394.153 514.942 392.398V392.398C514.398 391.423 513.708 390.619 512.873 389.984C512.075 389.344 511.155 388.907 510.112 388.675C509.102 388.4 508.008 388.343 506.832 388.503C504.884 388.768 503.284 389.528 502.033 390.784C500.818 392.035 499.978 393.703 499.513 395.788C499.047 397.872 499.005 400.311 499.385 403.105C499.76 405.861 500.452 408.2 501.462 410.122C502.467 412.007 503.741 413.387 505.282 414.263C506.824 415.139 508.55 415.447 510.461 415.187C511.638 415.027 512.676 414.68 513.577 414.145C514.514 413.606 515.282 412.922 515.88 412.091C516.515 411.256 516.963 410.278 517.222 409.158V409.158C517.758 407.121 519.167 405.243 521.254 404.959L527.938 404.05C533.838 403.248 539.612 407.581 537.826 413.262V413.262C536.818 416.581 535.148 419.578 532.816 422.254C530.48 424.892 527.577 427.084 524.109 428.829C520.64 430.573 516.719 431.743 512.345 432.338Z"/>
<path d="M573.051 363.438C577.679 362.808 581.941 366.05 582.571 370.678V370.678C583.2 375.306 579.959 379.568 575.331 380.198L548.206 383.887C543.578 384.516 539.315 381.275 538.686 376.646V376.646C538.057 372.018 541.298 367.756 545.926 367.127L573.051 363.438ZM546.7 362.08C545.872 355.991 550.137 350.382 556.227 349.554V349.554C562.316 348.726 567.924 352.991 568.753 359.081L574.436 400.871C574.671 402.598 575.164 403.748 575.916 404.319C576.699 404.849 578.102 404.977 580.123 404.702C581.116 404.567 582.365 404.397 583.872 404.192V404.192C585.638 403.952 587.264 405.189 587.505 406.955L588.674 415.555C589.047 418.295 587.128 420.819 584.387 421.192V421.192C582.109 421.502 579.72 421.827 577.22 422.167C569.575 423.206 563.82 422.585 559.953 420.304C556.081 417.985 553.733 413.794 552.908 407.729L546.7 362.08Z"/>
<path d="M302.001 551.237C295.668 552.099 289.835 547.663 288.974 541.329L281.404 485.67C280.276 477.375 286.086 469.736 294.381 468.608V468.608C299.577 467.901 304.769 469.93 308.109 473.973L327.136 497.002C328.208 498.278 329.571 500.04 331.224 502.285C332.909 504.489 334.674 506.87 336.519 509.426C338.238 511.758 339.847 513.964 341.345 516.044C341.611 516.414 341.695 516.886 341.572 517.326V517.326C341.147 518.852 338.996 518.762 338.722 517.202C338.503 515.959 338.282 514.664 338.059 513.316C337.428 509.509 336.837 505.846 336.283 502.327C335.762 498.767 335.353 495.903 335.058 493.734L332.524 475.1C331.663 468.766 336.098 462.934 342.432 462.073V462.073C348.765 461.211 354.597 465.647 355.459 471.98L363.027 527.628C364.156 535.929 358.342 543.575 350.04 544.704V544.704C344.85 545.409 339.663 543.388 336.319 539.357L318.927 518.389C317.579 516.738 315.889 514.628 313.855 512.06C311.853 509.45 309.68 506.544 307.335 503.344C305.472 500.757 303.591 498.123 301.691 495.443C300.984 494.446 301.367 493.052 302.483 492.554V492.554C303.608 492.052 304.912 492.713 305.159 493.921C305.777 496.937 306.33 499.914 306.819 502.853C307.471 506.545 307.997 509.862 308.397 512.802C308.833 515.737 309.164 518.032 309.389 519.686L311.909 538.21C312.77 544.543 308.334 550.376 302.001 551.237V551.237Z"/>
<path d="M392.228 540.033C388.333 540.562 384.811 540.405 381.664 539.56C378.517 538.716 375.926 537.14 373.89 534.834C371.854 532.528 370.574 529.445 370.049 525.586C369.604 522.315 369.799 519.481 370.633 517.084C371.463 514.65 372.791 512.579 374.617 510.871C376.476 509.121 378.715 507.693 381.335 506.588C383.95 505.446 386.804 504.553 389.898 503.907C393.286 503.222 395.985 502.555 397.993 501.908C400.033 501.219 401.467 500.481 402.296 499.694C403.125 498.908 403.467 497.981 403.322 496.916L403.292 496.695C403.177 495.85 402.801 495.152 402.165 494.602C401.529 494.052 400.692 493.68 399.655 493.484C398.649 493.246 397.466 493.22 396.106 493.405C394.673 493.6 393.451 493.972 392.44 494.521C391.466 495.065 390.74 495.782 390.262 496.67V496.67C389.377 498.23 388.218 499.868 386.441 500.11L380.483 500.92C374.485 501.736 368.661 496.966 371.261 491.499C371.385 491.237 371.516 490.978 371.653 490.722C373.438 487.335 376.263 484.574 380.128 482.439C384.024 480.261 388.95 478.768 394.904 477.958C399.388 477.348 403.402 477.27 406.945 477.724C410.52 478.137 413.585 479.067 416.14 480.517C418.733 481.961 420.792 483.89 422.318 486.302C423.839 488.678 424.824 491.52 425.274 494.828L429.106 523.001C429.913 528.938 425.755 534.406 419.817 535.213L413.146 536.121C410.893 536.427 408.818 534.849 408.512 532.596L407.976 528.655C407.965 528.578 407.895 528.525 407.818 528.535V528.535C407.768 528.542 407.725 528.576 407.706 528.623C406.74 531.079 405.529 533.091 404.076 534.659C402.602 536.207 400.873 537.397 398.89 538.228C396.948 539.091 394.728 539.693 392.228 540.033ZM397.529 525.33C399.109 525.115 400.594 524.614 401.985 523.826C403.406 522.996 404.515 521.928 405.311 520.622C406.107 519.316 406.387 517.799 406.152 516.071L405.774 513.289C405.65 512.379 404.67 511.856 403.833 512.232V512.232C403.27 512.495 402.652 512.767 401.978 513.045C401.3 513.287 400.551 513.558 399.73 513.856C398.905 514.118 397.99 514.411 396.986 514.735C395.514 515.197 394.262 515.761 393.229 516.425C392.233 517.085 391.494 517.84 391.011 518.692C390.528 519.544 390.353 520.466 390.488 521.459C390.623 522.451 391.017 523.277 391.668 523.937C392.314 524.561 393.14 524.991 394.146 525.229C395.151 525.466 396.279 525.5 397.529 525.33Z"/>
<path d="M463.999 469.909C468.627 469.279 472.889 472.521 473.518 477.149V477.149C474.148 481.777 470.906 486.039 466.278 486.669L439.153 490.358C434.525 490.987 430.263 487.746 429.633 483.117V483.117C429.004 478.489 432.246 474.227 436.874 473.598L463.999 469.909ZM437.647 468.551C436.819 462.462 441.084 456.853 447.174 456.025V456.025C453.264 455.197 458.872 459.462 459.7 465.552L465.384 507.342C465.619 509.069 466.112 510.219 466.863 510.79C467.647 511.32 469.049 511.448 471.071 511.173C472.063 511.038 473.313 510.868 474.82 510.663V510.663C476.586 510.423 478.212 511.66 478.452 513.426L479.622 522.026C479.995 524.766 478.075 527.29 475.335 527.663V527.663C473.056 527.973 470.667 528.298 468.168 528.638C460.523 529.677 454.767 529.056 450.9 526.775C447.029 524.456 444.681 520.265 443.856 514.2L437.647 468.551Z"/>
<path d="M498.27 524.543C492.18 525.372 486.572 521.106 485.744 515.017L480.825 478.85C479.997 472.761 484.262 467.153 490.351 466.324V466.324C496.441 465.496 502.049 469.761 502.877 475.851L507.796 512.018C508.625 518.107 504.359 523.715 498.27 524.543V524.543ZM489.771 462.473C486.317 462.943 483.351 462.335 480.876 460.65C478.438 458.961 477.006 456.554 476.581 453.429C476.161 450.342 476.903 447.677 478.807 445.434C480.742 443.149 483.437 441.772 486.892 441.302C490.347 440.832 493.294 441.442 495.732 443.132C498.202 444.78 499.65 447.166 500.075 450.29C500.495 453.378 499.737 456.064 497.802 458.348C495.903 460.628 493.226 462.003 489.771 462.473Z"/>
<path d="M547.337 517.87C539.731 518.904 532.296 515.049 528.759 508.237L512.87 477.636C509.474 471.095 513.586 463.164 520.888 462.171V462.171C525.593 461.531 530.153 464.082 532.07 468.426L539.305 484.822C540.984 488.637 542.608 492.459 544.177 496.288C545.439 499.295 546.691 502.304 547.93 505.314C548.442 506.556 547.64 507.946 546.309 508.127V508.127C544.984 508.307 543.843 507.195 543.99 505.867C544.346 502.634 544.703 499.401 545.059 496.168C545.548 492.059 546.074 487.945 546.637 483.825L549.12 466.079C549.773 461.408 553.453 457.742 558.126 457.107V457.107C565.343 456.125 571.351 462.592 569.843 469.717L562.667 503.626C561.078 511.135 554.942 516.836 547.337 517.87V517.87Z"/>
<path d="M612.407 510.368C606.379 511.188 600.856 510.629 595.839 508.691C590.816 506.716 586.669 503.611 583.398 499.377C580.163 495.138 578.144 490.059 577.339 484.142C576.529 478.187 577.119 472.754 579.109 467.842C581.093 462.892 584.19 458.821 588.397 455.629C592.637 452.394 597.733 450.372 603.688 449.562C608.172 448.953 612.37 449.13 616.282 450.096C620.189 451.024 623.685 452.645 626.77 454.958C629.849 457.235 632.372 460.092 634.337 463.531C636.339 466.965 637.637 470.868 638.232 475.242V475.242C638.675 478.5 636.393 481.5 633.135 481.944L590.739 487.71C587.329 488.173 584.188 485.785 583.724 482.375L583.458 480.416C583.141 478.087 584.772 475.943 587.1 475.627L618.139 471.405C619.295 471.248 619.695 472.889 618.597 473.282V473.282C618.016 473.49 617.393 473.109 617.262 472.506C616.928 470.971 616.374 469.671 615.599 468.606C614.627 467.241 613.372 466.27 611.834 465.693C610.295 465.116 608.497 464.968 606.439 465.248C604.417 465.523 602.724 466.146 601.358 467.118C600.03 468.084 599.08 469.355 598.508 470.931C597.931 472.469 597.783 474.267 598.063 476.326L599.39 486.084C599.68 488.216 600.334 489.998 601.352 491.432C602.408 492.861 603.762 493.874 605.416 494.473C607.106 495.067 609.036 495.216 611.204 494.921C612.785 494.706 614.172 494.312 615.367 493.737C616.598 493.158 617.605 492.441 618.387 491.586V491.586C619.728 490.047 621.279 488.441 623.302 488.166L627.541 487.59C633.763 486.743 639.239 492.05 635.661 497.21V497.21C633.282 500.641 630.081 503.528 626.058 505.872C622.066 508.174 617.516 509.673 612.407 510.368Z"/>
</mask>
<path d="M289.764 461.262C283.431 462.124 277.598 457.688 276.737 451.355L271.87 415.574C269.249 396.3 282.749 378.551 302.022 375.929V375.929C308.565 375.04 314.385 375.446 319.483 377.148C324.576 378.814 328.701 381.622 331.859 385.572C335.048 389.481 337.043 394.376 337.843 400.256C338.617 405.953 337.927 411.063 335.772 415.587C333.654 420.105 330.269 423.841 325.617 426.794C320.997 429.706 315.287 431.624 308.488 432.549L297.792 434.004C292.89 434.671 288.375 431.237 287.709 426.335V426.335C287.042 421.433 290.475 416.918 295.378 416.251L305.577 414.864C307.893 414.549 309.82 413.857 311.359 412.786C312.935 411.711 314.079 410.358 314.793 408.726C315.507 407.094 315.729 405.285 315.459 403.301C315.184 401.279 314.487 399.596 313.369 398.251C312.245 396.869 310.78 395.87 308.974 395.255C307.205 394.634 305.163 394.481 302.848 394.796V394.796C297.184 395.567 293.218 400.782 293.988 406.446L299.672 448.235C300.533 454.569 296.097 460.401 289.764 461.262V461.262ZM330.506 455.721C326.395 456.28 322.329 454.431 320.048 450.966L310.187 435.984C305.859 429.408 309.878 420.568 317.678 419.507V419.507C321.719 418.958 325.721 420.754 327.995 424.139L338 439.027C342.451 445.65 338.413 454.646 330.506 455.721V455.721Z" fill="#00252F"/>
<path d="M379.422 450.416C373.395 451.236 367.872 450.677 362.854 448.739C357.831 446.764 353.685 443.659 350.413 439.425C347.179 435.186 345.159 430.107 344.355 424.19C343.545 418.235 344.135 412.802 346.124 407.89C348.109 402.94 351.205 398.869 355.413 395.677C359.652 392.442 364.749 390.42 370.703 389.61C375.187 389.001 379.385 389.178 383.298 390.144C387.205 391.072 390.701 392.693 393.785 395.006C396.865 397.283 399.388 400.14 401.353 403.579C403.354 407.013 404.653 410.916 405.248 415.29V415.29C405.691 418.548 403.409 421.548 400.151 421.992L357.755 427.758C354.344 428.222 351.204 425.833 350.74 422.423L350.474 420.464C350.157 418.135 351.788 415.991 354.116 415.675L385.155 411.453C386.31 411.296 386.711 412.937 385.613 413.33V413.33C385.032 413.538 384.409 413.157 384.278 412.554C383.944 411.019 383.39 409.719 382.615 408.654C381.643 407.289 380.388 406.318 378.849 405.741C377.311 405.164 375.513 405.016 373.454 405.296C371.433 405.571 369.739 406.194 368.374 407.166C367.046 408.133 366.096 409.404 365.524 410.979C364.947 412.517 364.798 414.315 365.078 416.374L366.405 426.132C366.695 428.264 367.35 430.046 368.368 431.48C369.423 432.909 370.778 433.923 372.432 434.521C374.122 435.115 376.052 435.264 378.22 434.969C379.8 434.754 381.188 434.36 382.383 433.785C383.614 433.206 384.621 432.489 385.403 431.634V431.634C386.744 430.095 388.295 428.489 390.317 428.214L394.557 427.638C400.779 426.791 406.254 432.098 402.676 437.258V437.258C400.298 440.689 397.097 443.576 393.073 445.92C389.082 448.222 384.531 449.721 379.422 450.416Z" fill="#00252F"/>
<path d="M435.454 442.514C431.558 443.044 428.036 442.887 424.889 442.042C421.742 441.197 419.151 439.622 417.115 437.316C415.08 435.01 413.799 431.927 413.274 428.068C412.83 424.797 413.024 421.963 413.859 419.566C414.688 417.132 416.016 415.061 417.843 413.353C419.701 411.602 421.94 410.175 424.56 409.07C427.175 407.928 430.029 407.035 433.124 406.389C436.512 405.704 439.21 405.037 441.218 404.39C443.258 403.701 444.693 402.963 445.522 402.176C446.35 401.39 446.692 400.463 446.547 399.397L446.517 399.177C446.402 398.332 446.027 397.634 445.39 397.084C444.754 396.534 443.917 396.161 442.88 395.966C441.874 395.728 440.692 395.702 439.332 395.887C437.898 396.082 436.676 396.454 435.665 397.003C434.691 397.547 433.965 398.264 433.487 399.152V399.152C432.602 400.712 431.444 402.35 429.667 402.592L423.709 403.402C417.711 404.218 411.887 399.448 414.486 393.981C414.611 393.719 414.741 393.46 414.878 393.204C416.663 389.817 419.488 387.056 423.353 384.92C427.25 382.743 432.175 381.25 438.129 380.44C442.613 379.83 446.627 379.752 450.17 380.206C453.745 380.619 456.81 381.549 459.366 382.999C461.958 384.443 464.017 386.371 465.543 388.784C467.064 391.16 468.05 394.002 468.499 397.31L472.331 425.483C473.139 431.42 468.98 436.888 463.043 437.695L456.372 438.603C454.118 438.909 452.043 437.331 451.737 435.078L451.201 431.137C451.191 431.06 451.12 431.006 451.043 431.017V431.017C450.993 431.024 450.95 431.058 450.931 431.105C449.965 433.561 448.755 435.573 447.301 437.141C445.827 438.689 444.098 439.879 442.115 440.71C440.174 441.573 437.953 442.175 435.454 442.514ZM440.754 427.812C442.334 427.597 443.82 427.095 445.21 426.307C446.632 425.478 447.741 424.41 448.536 423.104C449.332 421.798 449.612 420.281 449.377 418.553L448.999 415.771C448.875 414.861 447.896 414.338 447.058 414.713V414.713C446.495 414.977 445.877 415.248 445.204 415.527C444.525 415.769 443.776 416.04 442.956 416.338C442.13 416.6 441.215 416.893 440.211 417.217C438.739 417.679 437.487 418.243 436.454 418.907C435.459 419.567 434.719 420.322 434.236 421.174C433.753 422.026 433.579 422.948 433.714 423.94C433.849 424.933 434.242 425.759 434.893 426.419C435.539 427.042 436.365 427.473 437.371 427.711C438.377 427.948 439.504 427.982 440.754 427.812Z" fill="#00252F"/>
<path d="M512.345 432.338C506.133 433.182 500.521 432.654 495.508 430.753C490.496 428.852 486.375 425.8 483.145 421.597C479.948 417.353 477.936 412.198 477.112 406.134C476.287 400.069 476.851 394.583 478.804 389.676C480.789 384.727 483.942 380.667 488.265 377.496C492.588 374.325 497.855 372.317 504.067 371.472C508.33 370.892 512.33 370.985 516.065 371.75C519.832 372.473 523.175 373.796 526.094 375.72C529.046 377.602 531.487 380.003 533.419 382.922V382.922C536.689 387.814 532.452 393.554 526.621 394.347L519.827 395.271C517.799 395.547 515.995 394.153 514.942 392.398V392.398C514.398 391.423 513.708 390.619 512.873 389.984C512.075 389.344 511.155 388.907 510.112 388.675C509.102 388.4 508.008 388.343 506.832 388.503C504.884 388.768 503.284 389.528 502.033 390.784C500.818 392.035 499.978 393.703 499.513 395.788C499.047 397.872 499.005 400.311 499.385 403.105C499.76 405.861 500.452 408.2 501.462 410.122C502.467 412.007 503.741 413.387 505.282 414.263C506.824 415.139 508.55 415.447 510.461 415.187C511.638 415.027 512.676 414.68 513.577 414.145C514.514 413.606 515.282 412.922 515.88 412.091C516.515 411.256 516.963 410.278 517.222 409.158V409.158C517.758 407.121 519.167 405.243 521.254 404.959L527.938 404.05C533.838 403.248 539.612 407.581 537.826 413.262V413.262C536.818 416.581 535.148 419.578 532.816 422.254C530.48 424.892 527.577 427.084 524.109 428.829C520.64 430.573 516.719 431.743 512.345 432.338Z" fill="#00252F"/>
<path d="M573.051 363.438C577.679 362.808 581.941 366.05 582.571 370.678V370.678C583.2 375.306 579.959 379.568 575.331 380.198L548.206 383.887C543.578 384.516 539.315 381.275 538.686 376.646V376.646C538.057 372.018 541.298 367.756 545.926 367.127L573.051 363.438ZM546.7 362.08C545.872 355.991 550.137 350.382 556.227 349.554V349.554C562.316 348.726 567.924 352.991 568.753 359.081L574.436 400.871C574.671 402.598 575.164 403.748 575.916 404.319C576.699 404.849 578.102 404.977 580.123 404.702C581.116 404.567 582.365 404.397 583.872 404.192V404.192C585.638 403.952 587.264 405.189 587.505 406.955L588.674 415.555C589.047 418.295 587.128 420.819 584.387 421.192V421.192C582.109 421.502 579.72 421.827 577.22 422.167C569.575 423.206 563.82 422.585 559.953 420.304C556.081 417.985 553.733 413.794 552.908 407.729L546.7 362.08Z" fill="#00252F"/>
<path d="M302.001 551.237C295.668 552.099 289.835 547.663 288.974 541.329L281.404 485.67C280.276 477.375 286.086 469.736 294.381 468.608V468.608C299.577 467.901 304.769 469.93 308.109 473.973L327.136 497.002C328.208 498.278 329.571 500.04 331.224 502.285C332.909 504.489 334.674 506.87 336.519 509.426C338.238 511.758 339.847 513.964 341.345 516.044C341.611 516.414 341.695 516.886 341.572 517.326V517.326C341.147 518.852 338.996 518.762 338.722 517.202C338.503 515.959 338.282 514.664 338.059 513.316C337.428 509.509 336.837 505.846 336.283 502.327C335.762 498.767 335.353 495.903 335.058 493.734L332.524 475.1C331.663 468.766 336.098 462.934 342.432 462.073V462.073C348.765 461.211 354.597 465.647 355.459 471.98L363.027 527.628C364.156 535.929 358.342 543.575 350.04 544.704V544.704C344.85 545.409 339.663 543.388 336.319 539.357L318.927 518.389C317.579 516.738 315.889 514.628 313.855 512.06C311.853 509.45 309.68 506.544 307.335 503.344C305.472 500.757 303.591 498.123 301.691 495.443C300.984 494.446 301.367 493.052 302.483 492.554V492.554C303.608 492.052 304.912 492.713 305.159 493.921C305.777 496.937 306.33 499.914 306.819 502.853C307.471 506.545 307.997 509.862 308.397 512.802C308.833 515.737 309.164 518.032 309.389 519.686L311.909 538.21C312.77 544.543 308.334 550.376 302.001 551.237V551.237Z" fill="#00252F"/>
<path d="M392.228 540.033C388.333 540.562 384.811 540.405 381.664 539.56C378.517 538.716 375.926 537.14 373.89 534.834C371.854 532.528 370.574 529.445 370.049 525.586C369.604 522.315 369.799 519.481 370.633 517.084C371.463 514.65 372.791 512.579 374.617 510.871C376.476 509.121 378.715 507.693 381.335 506.588C383.95 505.446 386.804 504.553 389.898 503.907C393.286 503.222 395.985 502.555 397.993 501.908C400.033 501.219 401.467 500.481 402.296 499.694C403.125 498.908 403.467 497.981 403.322 496.916L403.292 496.695C403.177 495.85 402.801 495.152 402.165 494.602C401.529 494.052 400.692 493.68 399.655 493.484C398.649 493.246 397.466 493.22 396.106 493.405C394.673 493.6 393.451 493.972 392.44 494.521C391.466 495.065 390.74 495.782 390.262 496.67V496.67C389.377 498.23 388.218 499.868 386.441 500.11L380.483 500.92C374.485 501.736 368.661 496.966 371.261 491.499C371.385 491.237 371.516 490.978 371.653 490.722C373.438 487.335 376.263 484.574 380.128 482.439C384.024 480.261 388.95 478.768 394.904 477.958C399.388 477.348 403.402 477.27 406.945 477.724C410.52 478.137 413.585 479.067 416.14 480.517C418.733 481.961 420.792 483.89 422.318 486.302C423.839 488.678 424.824 491.52 425.274 494.828L429.106 523.001C429.913 528.938 425.755 534.406 419.817 535.213L413.146 536.121C410.893 536.427 408.818 534.849 408.512 532.596L407.976 528.655C407.965 528.578 407.895 528.525 407.818 528.535V528.535C407.768 528.542 407.725 528.576 407.706 528.623C406.74 531.079 405.529 533.091 404.076 534.659C402.602 536.207 400.873 537.397 398.89 538.228C396.948 539.091 394.728 539.693 392.228 540.033ZM397.529 525.33C399.109 525.115 400.594 524.614 401.985 523.826C403.406 522.996 404.515 521.928 405.311 520.622C406.107 519.316 406.387 517.799 406.152 516.071L405.774 513.289C405.65 512.379 404.67 511.856 403.833 512.232V512.232C403.27 512.495 402.652 512.767 401.978 513.045C401.3 513.287 400.551 513.558 399.73 513.856C398.905 514.118 397.99 514.411 396.986 514.735C395.514 515.197 394.262 515.761 393.229 516.425C392.233 517.085 391.494 517.84 391.011 518.692C390.528 519.544 390.353 520.466 390.488 521.459C390.623 522.451 391.017 523.277 391.668 523.937C392.314 524.561 393.14 524.991 394.146 525.229C395.151 525.466 396.279 525.5 397.529 525.33Z" fill="#00252F"/>
<path d="M463.999 469.909C468.627 469.279 472.889 472.521 473.518 477.149V477.149C474.148 481.777 470.906 486.039 466.278 486.669L439.153 490.358C434.525 490.987 430.263 487.746 429.633 483.117V483.117C429.004 478.489 432.246 474.227 436.874 473.598L463.999 469.909ZM437.647 468.551C436.819 462.462 441.084 456.853 447.174 456.025V456.025C453.264 455.197 458.872 459.462 459.7 465.552L465.384 507.342C465.619 509.069 466.112 510.219 466.863 510.79C467.647 511.32 469.049 511.448 471.071 511.173C472.063 511.038 473.313 510.868 474.82 510.663V510.663C476.586 510.423 478.212 511.66 478.452 513.426L479.622 522.026C479.995 524.766 478.075 527.29 475.335 527.663V527.663C473.056 527.973 470.667 528.298 468.168 528.638C460.523 529.677 454.767 529.056 450.9 526.775C447.029 524.456 444.681 520.265 443.856 514.2L437.647 468.551Z" fill="#00252F"/>
<path d="M498.27 524.543C492.18 525.372 486.572 521.106 485.744 515.017L480.825 478.85C479.997 472.761 484.262 467.153 490.351 466.324V466.324C496.441 465.496 502.049 469.761 502.877 475.851L507.796 512.018C508.625 518.107 504.359 523.715 498.27 524.543V524.543ZM489.771 462.473C486.317 462.943 483.351 462.335 480.876 460.65C478.438 458.961 477.006 456.554 476.581 453.429C476.161 450.342 476.903 447.677 478.807 445.434C480.742 443.149 483.437 441.772 486.892 441.302C490.347 440.832 493.294 441.442 495.732 443.132C498.202 444.78 499.65 447.166 500.075 450.29C500.495 453.378 499.737 456.064 497.802 458.348C495.903 460.628 493.226 462.003 489.771 462.473Z" fill="#00252F"/>
<path d="M547.337 517.87C539.731 518.904 532.296 515.049 528.759 508.237L512.87 477.636C509.474 471.095 513.586 463.164 520.888 462.171V462.171C525.593 461.531 530.153 464.082 532.07 468.426L539.305 484.822C540.984 488.637 542.608 492.459 544.177 496.288C545.439 499.295 546.691 502.304 547.93 505.314C548.442 506.556 547.64 507.946 546.309 508.127V508.127C544.984 508.307 543.843 507.195 543.99 505.867C544.346 502.634 544.703 499.401 545.059 496.168C545.548 492.059 546.074 487.945 546.637 483.825L549.12 466.079C549.773 461.408 553.453 457.742 558.126 457.107V457.107C565.343 456.125 571.351 462.592 569.843 469.717L562.667 503.626C561.078 511.135 554.942 516.836 547.337 517.87V517.87Z" fill="#00252F"/>
<path d="M612.407 510.368C606.379 511.188 600.856 510.629 595.839 508.691C590.816 506.716 586.669 503.611 583.398 499.377C580.163 495.138 578.144 490.059 577.339 484.142C576.529 478.187 577.119 472.754 579.109 467.842C581.093 462.892 584.19 458.821 588.397 455.629C592.637 452.394 597.733 450.372 603.688 449.562C608.172 448.953 612.37 449.13 616.282 450.096C620.189 451.024 623.685 452.645 626.77 454.958C629.849 457.235 632.372 460.092 634.337 463.531C636.339 466.965 637.637 470.868 638.232 475.242V475.242C638.675 478.5 636.393 481.5 633.135 481.944L590.739 487.71C587.329 488.173 584.188 485.785 583.724 482.375L583.458 480.416C583.141 478.087 584.772 475.943 587.1 475.627L618.139 471.405C619.295 471.248 619.695 472.889 618.597 473.282V473.282C618.016 473.49 617.393 473.109 617.262 472.506C616.928 470.971 616.374 469.671 615.599 468.606C614.627 467.241 613.372 466.27 611.834 465.693C610.295 465.116 608.497 464.968 606.439 465.248C604.417 465.523 602.724 466.146 601.358 467.118C600.03 468.084 599.08 469.355 598.508 470.931C597.931 472.469 597.783 474.267 598.063 476.326L599.39 486.084C599.68 488.216 600.334 489.998 601.352 491.432C602.408 492.861 603.762 493.874 605.416 494.473C607.106 495.067 609.036 495.216 611.204 494.921C612.785 494.706 614.172 494.312 615.367 493.737C616.598 493.158 617.605 492.441 618.387 491.586V491.586C619.728 490.047 621.279 488.441 623.302 488.166L627.541 487.59C633.763 486.743 639.239 492.05 635.661 497.21V497.21C633.282 500.641 630.081 503.528 626.058 505.872C622.066 508.174 617.516 509.673 612.407 510.368Z" fill="#00252F"/>
<path d="M289.764 461.262C283.431 462.124 277.598 457.688 276.737 451.355L271.87 415.574C269.249 396.3 282.749 378.551 302.022 375.929V375.929C308.565 375.04 314.385 375.446 319.483 377.148C324.576 378.814 328.701 381.622 331.859 385.572C335.048 389.481 337.043 394.376 337.843 400.256C338.617 405.953 337.927 411.063 335.772 415.587C333.654 420.105 330.269 423.841 325.617 426.794C320.997 429.706 315.287 431.624 308.488 432.549L297.792 434.004C292.89 434.671 288.375 431.237 287.709 426.335V426.335C287.042 421.433 290.475 416.918 295.378 416.251L305.577 414.864C307.893 414.549 309.82 413.857 311.359 412.786C312.935 411.711 314.079 410.358 314.793 408.726C315.507 407.094 315.729 405.285 315.459 403.301C315.184 401.279 314.487 399.596 313.369 398.251C312.245 396.869 310.78 395.87 308.974 395.255C307.205 394.634 305.163 394.481 302.848 394.796V394.796C297.184 395.567 293.218 400.782 293.988 406.446L299.672 448.235C300.533 454.569 296.097 460.401 289.764 461.262V461.262ZM330.506 455.721C326.395 456.28 322.329 454.431 320.048 450.966L310.187 435.984C305.859 429.408 309.878 420.568 317.678 419.507V419.507C321.719 418.958 325.721 420.754 327.995 424.139L338 439.027C342.451 445.65 338.413 454.646 330.506 455.721V455.721Z" stroke="white" stroke-opacity="0.7" stroke-width="34.9319" mask="url(#path-4-outside-1_3764_10395)"/>
<path d="M379.422 450.416C373.395 451.236 367.872 450.677 362.854 448.739C357.831 446.764 353.685 443.659 350.413 439.425C347.179 435.186 345.159 430.107 344.355 424.19C343.545 418.235 344.135 412.802 346.124 407.89C348.109 402.94 351.205 398.869 355.413 395.677C359.652 392.442 364.749 390.42 370.703 389.61C375.187 389.001 379.385 389.178 383.298 390.144C387.205 391.072 390.701 392.693 393.785 395.006C396.865 397.283 399.388 400.14 401.353 403.579C403.354 407.013 404.653 410.916 405.248 415.29V415.29C405.691 418.548 403.409 421.548 400.151 421.992L357.755 427.758C354.344 428.222 351.204 425.833 350.74 422.423L350.474 420.464C350.157 418.135 351.788 415.991 354.116 415.675L385.155 411.453C386.31 411.296 386.711 412.937 385.613 413.33V413.33C385.032 413.538 384.409 413.157 384.278 412.554C383.944 411.019 383.39 409.719 382.615 408.654C381.643 407.289 380.388 406.318 378.849 405.741C377.311 405.164 375.513 405.016 373.454 405.296C371.433 405.571 369.739 406.194 368.374 407.166C367.046 408.133 366.096 409.404 365.524 410.979C364.947 412.517 364.798 414.315 365.078 416.374L366.405 426.132C366.695 428.264 367.35 430.046 368.368 431.48C369.423 432.909 370.778 433.923 372.432 434.521C374.122 435.115 376.052 435.264 378.22 434.969C379.8 434.754 381.188 434.36 382.383 433.785C383.614 433.206 384.621 432.489 385.403 431.634V431.634C386.744 430.095 388.295 428.489 390.317 428.214L394.557 427.638C400.779 426.791 406.254 432.098 402.676 437.258V437.258C400.298 440.689 397.097 443.576 393.073 445.92C389.082 448.222 384.531 449.721 379.422 450.416Z" stroke="white" stroke-opacity="0.7" stroke-width="34.9319" mask="url(#path-4-outside-1_3764_10395)"/>
<path d="M435.454 442.514C431.558 443.044 428.036 442.887 424.889 442.042C421.742 441.197 419.151 439.622 417.115 437.316C415.08 435.01 413.799 431.927 413.274 428.068C412.83 424.797 413.024 421.963 413.859 419.566C414.688 417.132 416.016 415.061 417.843 413.353C419.701 411.602 421.94 410.175 424.56 409.07C427.175 407.928 430.029 407.035 433.124 406.389C436.512 405.704 439.21 405.037 441.218 404.39C443.258 403.701 444.693 402.963 445.522 402.176C446.35 401.39 446.692 400.463 446.547 399.397L446.517 399.177C446.402 398.332 446.027 397.634 445.39 397.084C444.754 396.534 443.917 396.161 442.88 395.966C441.874 395.728 440.692 395.702 439.332 395.887C437.898 396.082 436.676 396.454 435.665 397.003C434.691 397.547 433.965 398.264 433.487 399.152V399.152C432.602 400.712 431.444 402.35 429.667 402.592L423.709 403.402C417.711 404.218 411.887 399.448 414.486 393.981C414.611 393.719 414.741 393.46 414.878 393.204C416.663 389.817 419.488 387.056 423.353 384.92C427.25 382.743 432.175 381.25 438.129 380.44C442.613 379.83 446.627 379.752 450.17 380.206C453.745 380.619 456.81 381.549 459.366 382.999C461.958 384.443 464.017 386.371 465.543 388.784C467.064 391.16 468.05 394.002 468.499 397.31L472.331 425.483C473.139 431.42 468.98 436.888 463.043 437.695L456.372 438.603C454.118 438.909 452.043 437.331 451.737 435.078L451.201 431.137C451.191 431.06 451.12 431.006 451.043 431.017V431.017C450.993 431.024 450.95 431.058 450.931 431.105C449.965 433.561 448.755 435.573 447.301 437.141C445.827 438.689 444.098 439.879 442.115 440.71C440.174 441.573 437.953 442.175 435.454 442.514ZM440.754 427.812C442.334 427.597 443.82 427.095 445.21 426.307C446.632 425.478 447.741 424.41 448.536 423.104C449.332 421.798 449.612 420.281 449.377 418.553L448.999 415.771C448.875 414.861 447.896 414.338 447.058 414.713V414.713C446.495 414.977 445.877 415.248 445.204 415.527C444.525 415.769 443.776 416.04 442.956 416.338C442.13 416.6 441.215 416.893 440.211 417.217C438.739 417.679 437.487 418.243 436.454 418.907C435.459 419.567 434.719 420.322 434.236 421.174C433.753 422.026 433.579 422.948 433.714 423.94C433.849 424.933 434.242 425.759 434.893 426.419C435.539 427.042 436.365 427.473 437.371 427.711C438.377 427.948 439.504 427.982 440.754 427.812Z" stroke="white" stroke-opacity="0.7" stroke-width="34.9319" mask="url(#path-4-outside-1_3764_10395)"/>
<path d="M512.345 432.338C506.133 433.182 500.521 432.654 495.508 430.753C490.496 428.852 486.375 425.8 483.145 421.597C479.948 417.353 477.936 412.198 477.112 406.134C476.287 400.069 476.851 394.583 478.804 389.676C480.789 384.727 483.942 380.667 488.265 377.496C492.588 374.325 497.855 372.317 504.067 371.472C508.33 370.892 512.33 370.985 516.065 371.75C519.832 372.473 523.175 373.796 526.094 375.72C529.046 377.602 531.487 380.003 533.419 382.922V382.922C536.689 387.814 532.452 393.554 526.621 394.347L519.827 395.271C517.799 395.547 515.995 394.153 514.942 392.398V392.398C514.398 391.423 513.708 390.619 512.873 389.984C512.075 389.344 511.155 388.907 510.112 388.675C509.102 388.4 508.008 388.343 506.832 388.503C504.884 388.768 503.284 389.528 502.033 390.784C500.818 392.035 499.978 393.703 499.513 395.788C499.047 397.872 499.005 400.311 499.385 403.105C499.76 405.861 500.452 408.2 501.462 410.122C502.467 412.007 503.741 413.387 505.282 414.263C506.824 415.139 508.55 415.447 510.461 415.187C511.638 415.027 512.676 414.68 513.577 414.145C514.514 413.606 515.282 412.922 515.88 412.091C516.515 411.256 516.963 410.278 517.222 409.158V409.158C517.758 407.121 519.167 405.243 521.254 404.959L527.938 404.05C533.838 403.248 539.612 407.581 537.826 413.262V413.262C536.818 416.581 535.148 419.578 532.816 422.254C530.48 424.892 527.577 427.084 524.109 428.829C520.64 430.573 516.719 431.743 512.345 432.338Z" stroke="white" stroke-opacity="0.7" stroke-width="34.9319" mask="url(#path-4-outside-1_3764_10395)"/>
<path d="M573.051 363.438C577.679 362.808 581.941 366.05 582.571 370.678V370.678C583.2 375.306 579.959 379.568 575.331 380.198L548.206 383.887C543.578 384.516 539.315 381.275 538.686 376.646V376.646C538.057 372.018 541.298 367.756 545.926 367.127L573.051 363.438ZM546.7 362.08C545.872 355.991 550.137 350.382 556.227 349.554V349.554C562.316 348.726 567.924 352.991 568.753 359.081L574.436 400.871C574.671 402.598 575.164 403.748 575.916 404.319C576.699 404.849 578.102 404.977 580.123 404.702C581.116 404.567 582.365 404.397 583.872 404.192V404.192C585.638 403.952 587.264 405.189 587.505 406.955L588.674 415.555C589.047 418.295 587.128 420.819 584.387 421.192V421.192C582.109 421.502 579.72 421.827 577.22 422.167C569.575 423.206 563.82 422.585 559.953 420.304C556.081 417.985 553.733 413.794 552.908 407.729L546.7 362.08Z" stroke="white" stroke-opacity="0.7" stroke-width="34.9319" mask="url(#path-4-outside-1_3764_10395)"/>
<path d="M302.001 551.237C295.668 552.099 289.835 547.663 288.974 541.329L281.404 485.67C280.276 477.375 286.086 469.736 294.381 468.608V468.608C299.577 467.901 304.769 469.93 308.109 473.973L327.136 497.002C328.208 498.278 329.571 500.04 331.224 502.285C332.909 504.489 334.674 506.87 336.519 509.426C338.238 511.758 339.847 513.964 341.345 516.044C341.611 516.414 341.695 516.886 341.572 517.326V517.326C341.147 518.852 338.996 518.762 338.722 517.202C338.503 515.959 338.282 514.664 338.059 513.316C337.428 509.509 336.837 505.846 336.283 502.327C335.762 498.767 335.353 495.903 335.058 493.734L332.524 475.1C331.663 468.766 336.098 462.934 342.432 462.073V462.073C348.765 461.211 354.597 465.647 355.459 471.98L363.027 527.628C364.156 535.929 358.342 543.575 350.04 544.704V544.704C344.85 545.409 339.663 543.388 336.319 539.357L318.927 518.389C317.579 516.738 315.889 514.628 313.855 512.06C311.853 509.45 309.68 506.544 307.335 503.344C305.472 500.757 303.591 498.123 301.691 495.443C300.984 494.446 301.367 493.052 302.483 492.554V492.554C303.608 492.052 304.912 492.713 305.159 493.921C305.777 496.937 306.33 499.914 306.819 502.853C307.471 506.545 307.997 509.862 308.397 512.802C308.833 515.737 309.164 518.032 309.389 519.686L311.909 538.21C312.77 544.543 308.334 550.376 302.001 551.237V551.237Z" stroke="white" stroke-opacity="0.7" stroke-width="34.9319" mask="url(#path-4-outside-1_3764_10395)"/>
<path d="M392.228 540.033C388.333 540.562 384.811 540.405 381.664 539.56C378.517 538.716 375.926 537.14 373.89 534.834C371.854 532.528 370.574 529.445 370.049 525.586C369.604 522.315 369.799 519.481 370.633 517.084C371.463 514.65 372.791 512.579 374.617 510.871C376.476 509.121 378.715 507.693 381.335 506.588C383.95 505.446 386.804 504.553 389.898 503.907C393.286 503.222 395.985 502.555 397.993 501.908C400.033 501.219 401.467 500.481 402.296 499.694C403.125 498.908 403.467 497.981 403.322 496.916L403.292 496.695C403.177 495.85 402.801 495.152 402.165 494.602C401.529 494.052 400.692 493.68 399.655 493.484C398.649 493.246 397.466 493.22 396.106 493.405C394.673 493.6 393.451 493.972 392.44 494.521C391.466 495.065 390.74 495.782 390.262 496.67V496.67C389.377 498.23 388.218 499.868 386.441 500.11L380.483 500.92C374.485 501.736 368.661 496.966 371.261 491.499C371.385 491.237 371.516 490.978 371.653 490.722C373.438 487.335 376.263 484.574 380.128 482.439C384.024 480.261 388.95 478.768 394.904 477.958C399.388 477.348 403.402 477.27 406.945 477.724C410.52 478.137 413.585 479.067 416.14 480.517C418.733 481.961 420.792 483.89 422.318 486.302C423.839 488.678 424.824 491.52 425.274 494.828L429.106 523.001C429.913 528.938 425.755 534.406 419.817 535.213L413.146 536.121C410.893 536.427 408.818 534.849 408.512 532.596L407.976 528.655C407.965 528.578 407.895 528.525 407.818 528.535V528.535C407.768 528.542 407.725 528.576 407.706 528.623C406.74 531.079 405.529 533.091 404.076 534.659C402.602 536.207 400.873 537.397 398.89 538.228C396.948 539.091 394.728 539.693 392.228 540.033ZM397.529 525.33C399.109 525.115 400.594 524.614 401.985 523.826C403.406 522.996 404.515 521.928 405.311 520.622C406.107 519.316 406.387 517.799 406.152 516.071L405.774 513.289C405.65 512.379 404.67 511.856 403.833 512.232V512.232C403.27 512.495 402.652 512.767 401.978 513.045C401.3 513.287 400.551 513.558 399.73 513.856C398.905 514.118 397.99 514.411 396.986 514.735C395.514 515.197 394.262 515.761 393.229 516.425C392.233 517.085 391.494 517.84 391.011 518.692C390.528 519.544 390.353 520.466 390.488 521.459C390.623 522.451 391.017 523.277 391.668 523.937C392.314 524.561 393.14 524.991 394.146 525.229C395.151 525.466 396.279 525.5 397.529 525.33Z" stroke="white" stroke-opacity="0.7" stroke-width="34.9319" mask="url(#path-4-outside-1_3764_10395)"/>
<path d="M463.999 469.909C468.627 469.279 472.889 472.521 473.518 477.149V477.149C474.148 481.777 470.906 486.039 466.278 486.669L439.153 490.358C434.525 490.987 430.263 487.746 429.633 483.117V483.117C429.004 478.489 432.246 474.227 436.874 473.598L463.999 469.909ZM437.647 468.551C436.819 462.462 441.084 456.853 447.174 456.025V456.025C453.264 455.197 458.872 459.462 459.7 465.552L465.384 507.342C465.619 509.069 466.112 510.219 466.863 510.79C467.647 511.32 469.049 511.448 471.071 511.173C472.063 511.038 473.313 510.868 474.82 510.663V510.663C476.586 510.423 478.212 511.66 478.452 513.426L479.622 522.026C479.995 524.766 478.075 527.29 475.335 527.663V527.663C473.056 527.973 470.667 528.298 468.168 528.638C460.523 529.677 454.767 529.056 450.9 526.775C447.029 524.456 444.681 520.265 443.856 514.2L437.647 468.551Z" stroke="white" stroke-opacity="0.7" stroke-width="34.9319" mask="url(#path-4-outside-1_3764_10395)"/>
<path d="M498.27 524.543C492.18 525.372 486.572 521.106 485.744 515.017L480.825 478.85C479.997 472.761 484.262 467.153 490.351 466.324V466.324C496.441 465.496 502.049 469.761 502.877 475.851L507.796 512.018C508.625 518.107 504.359 523.715 498.27 524.543V524.543ZM489.771 462.473C486.317 462.943 483.351 462.335 480.876 460.65C478.438 458.961 477.006 456.554 476.581 453.429C476.161 450.342 476.903 447.677 478.807 445.434C480.742 443.149 483.437 441.772 486.892 441.302C490.347 440.832 493.294 441.442 495.732 443.132C498.202 444.78 499.65 447.166 500.075 450.29C500.495 453.378 499.737 456.064 497.802 458.348C495.903 460.628 493.226 462.003 489.771 462.473Z" stroke="white" stroke-opacity="0.7" stroke-width="34.9319" mask="url(#path-4-outside-1_3764_10395)"/>
<path d="M547.337 517.87C539.731 518.904 532.296 515.049 528.759 508.237L512.87 477.636C509.474 471.095 513.586 463.164 520.888 462.171V462.171C525.593 461.531 530.153 464.082 532.07 468.426L539.305 484.822C540.984 488.637 542.608 492.459 544.177 496.288C545.439 499.295 546.691 502.304 547.93 505.314C548.442 506.556 547.64 507.946 546.309 508.127V508.127C544.984 508.307 543.843 507.195 543.99 505.867C544.346 502.634 544.703 499.401 545.059 496.168C545.548 492.059 546.074 487.945 546.637 483.825L549.12 466.079C549.773 461.408 553.453 457.742 558.126 457.107V457.107C565.343 456.125 571.351 462.592 569.843 469.717L562.667 503.626C561.078 511.135 554.942 516.836 547.337 517.87V517.87Z" stroke="white" stroke-opacity="0.7" stroke-width="34.9319" mask="url(#path-4-outside-1_3764_10395)"/>
<path d="M612.407 510.368C606.379 511.188 600.856 510.629 595.839 508.691C590.816 506.716 586.669 503.611 583.398 499.377C580.163 495.138 578.144 490.059 577.339 484.142C576.529 478.187 577.119 472.754 579.109 467.842C581.093 462.892 584.19 458.821 588.397 455.629C592.637 452.394 597.733 450.372 603.688 449.562C608.172 448.953 612.37 449.13 616.282 450.096C620.189 451.024 623.685 452.645 626.77 454.958C629.849 457.235 632.372 460.092 634.337 463.531C636.339 466.965 637.637 470.868 638.232 475.242V475.242C638.675 478.5 636.393 481.5 633.135 481.944L590.739 487.71C587.329 488.173 584.188 485.785 583.724 482.375L583.458 480.416C583.141 478.087 584.772 475.943 587.1 475.627L618.139 471.405C619.295 471.248 619.695 472.889 618.597 473.282V473.282C618.016 473.49 617.393 473.109 617.262 472.506C616.928 470.971 616.374 469.671 615.599 468.606C614.627 467.241 613.372 466.27 611.834 465.693C610.295 465.116 608.497 464.968 606.439 465.248C604.417 465.523 602.724 466.146 601.358 467.118C600.03 468.084 599.08 469.355 598.508 470.931C597.931 472.469 597.783 474.267 598.063 476.326L599.39 486.084C599.68 488.216 600.334 489.998 601.352 491.432C602.408 492.861 603.762 493.874 605.416 494.473C607.106 495.067 609.036 495.216 611.204 494.921C612.785 494.706 614.172 494.312 615.367 493.737C616.598 493.158 617.605 492.441 618.387 491.586V491.586C619.728 490.047 621.279 488.441 623.302 488.166L627.541 487.59C633.763 486.743 639.239 492.05 635.661 497.21V497.21C633.282 500.641 630.081 503.528 626.058 505.872C622.066 508.174 617.516 509.673 612.407 510.368Z" stroke="white" stroke-opacity="0.7" stroke-width="34.9319" mask="url(#path-4-outside-1_3764_10395)"/>
</g>
</g>
<defs>
<filter id="filter0_dddd_3764_10395" x="16" y="-10" width="710.449" height="736.637" filterUnits="userSpaceOnUse" color-interpolation-filters="sRGB">
<feFlood flood-opacity="0" result="BackgroundImageFix"/>
<feColorMatrix in="SourceAlpha" type="matrix" values="0 0 0 0 0 0 0 0 0 0 0 0 0 0 0 0 0 0 127 0" result="hardAlpha"/>
<feOffset dy="8"/>
<feGaussianBlur stdDeviation="9"/>
<feColorMatrix type="matrix" values="0 0 0 0 0.188235 0 0 0 0 0.537255 0 0 0 0 0.631373 0 0 0 0.2 0"/>
<feBlend mode="normal" in2="BackgroundImageFix" result="effect1_dropShadow_3764_10395"/>
<feColorMatrix in="SourceAlpha" type="matrix" values="0 0 0 0 0 0 0 0 0 0 0 0 0 0 0 0 0 0 127 0" result="hardAlpha"/>
<feOffset dy="32"/>
<feGaussianBlur stdDeviation="16"/>
<feColorMatrix type="matrix" values="0 0 0 0 0.188235 0 0 0 0 0.537255 0 0 0 0 0.631373 0 0 0 0.17 0"/>
<feBlend mode="normal" in2="effect1_dropShadow_3764_10395" result="effect2_dropShadow_3764_10395"/>
<feColorMatrix in="SourceAlpha" type="matrix" values="0 0 0 0 0 0 0 0 0 0 0 0 0 0 0 0 0 0 127 0" result="hardAlpha"/>
<feOffset dy="73"/>
<feGaussianBlur stdDeviation="22"/>
<feColorMatrix type="matrix" values="0 0 0 0 0.188235 0 0 0 0 0.537255 0 0 0 0 0.631373 0 0 0 0.1 0"/>
<feBlend mode="normal" in2="effect2_dropShadow_3764_10395" result="effect3_dropShadow_3764_10395"/>
<feColorMatrix in="SourceAlpha" type="matrix" values="0 0 0 0 0 0 0 0 0 0 0 0 0 0 0 0 0 0 127 0" result="hardAlpha"/>
<feOffset dy="129"/>
<feGaussianBlur stdDeviation="26"/>
<feColorMatrix type="matrix" values="0 0 0 0 0.188235 0 0 0 0 0.537255 0 0 0 0 0.631373 0 0 0 0.03 0"/>
<feBlend mode="normal" in2="effect3_dropShadow_3764_10395" result="effect4_dropShadow_3764_10395"/>
<feBlend mode="normal" in="SourceGraphic" in2="effect4_dropShadow_3764_10395" result="shape"/>
</filter>
<filter id="filter1_dddd_3764_10395" x="237.077" y="328.984" width="435.678" height="299.828" filterUnits="userSpaceOnUse" color-interpolation-filters="sRGB">
<feFlood flood-opacity="0" result="BackgroundImageFix"/>
<feColorMatrix in="SourceAlpha" type="matrix" values="0 0 0 0 0 0 0 0 0 0 0 0 0 0 0 0 0 0 127 0" result="hardAlpha"/>
<feOffset dy="3"/>
<feGaussianBlur stdDeviation="3"/>
<feColorMatrix type="matrix" values="0 0 0 0 0.380392 0 0 0 0 0.854902 0 0 0 0 0.984314 0 0 0 0.1 0"/>
<feBlend mode="normal" in2="BackgroundImageFix" result="effect1_dropShadow_3764_10395"/>
<feColorMatrix in="SourceAlpha" type="matrix" values="0 0 0 0 0 0 0 0 0 0 0 0 0 0 0 0 0 0 127 0" result="hardAlpha"/>
<feOffset dy="11"/>
<feGaussianBlur stdDeviation="5.5"/>
<feColorMatrix type="matrix" values="0 0 0 0 0.380392 0 0 0 0 0.854902 0 0 0 0 0.984314 0 0 0 0.09 0"/>
<feBlend mode="normal" in2="effect1_dropShadow_3764_10395" result="effect2_dropShadow_3764_10395"/>
<feColorMatrix in="SourceAlpha" type="matrix" values="0 0 0 0 0 0 0 0 0 0 0 0 0 0 0 0 0 0 127 0" result="hardAlpha"/>
<feOffset dy="24"/>
<feGaussianBlur stdDeviation="7.5"/>
<feColorMatrix type="matrix" values="0 0 0 0 0.380392 0 0 0 0 0.854902 0 0 0 0 0.984314 0 0 0 0.05 0"/>
<feBlend mode="normal" in2="effect2_dropShadow_3764_10395" result="effect3_dropShadow_3764_10395"/>
<feColorMatrix in="SourceAlpha" type="matrix" values="0 0 0 0 0 0 0 0 0 0 0 0 0 0 0 0 0 0 127 0" result="hardAlpha"/>
<feOffset dy="43"/>
<feGaussianBlur stdDeviation="8.5"/>
<feColorMatrix type="matrix" values="0 0 0 0 0.380392 0 0 0 0 0.854902 0 0 0 0 0.984314 0 0 0 0.01 0"/>
<feBlend mode="normal" in2="effect3_dropShadow_3764_10395" result="effect4_dropShadow_3764_10395"/>
<feBlend mode="normal" in="SourceGraphic" in2="effect4_dropShadow_3764_10395" result="shape"/>
</filter>
<clipPath id="clip0_3764_10395">
<rect width="742.424" height="700" fill="white"/>
</clipPath>
</defs>
</svg>
