<svg width="759" height="700" viewBox="0 0 759 700" fill="none" xmlns="http://www.w3.org/2000/svg">
<g clip-path="url(#clip0_3764_10373)">
<g filter="url(#filter0_dddd_3764_10373)">
<path d="M378.718 70.286C372.63 64.6323 366.551 59.3369 360.508 54.4257C339.033 36.9719 317.158 23.6751 296.162 16.8829C275.181 10.0953 252.602 9.12099 232.95 20.4671C213.298 31.8133 202.852 51.8543 198.24 73.4183C193.624 94.9969 194.202 120.59 198.58 147.915C199.812 155.604 201.358 163.516 203.21 171.615C195.263 174.063 187.631 176.681 180.351 179.461C154.498 189.332 132.045 201.629 115.665 216.415C99.2958 231.192 87.1626 250.258 87.1626 272.95C87.1626 295.643 99.2958 314.709 115.665 329.486C132.045 344.272 154.498 356.569 180.351 366.44C187.632 369.22 195.263 371.838 203.211 374.286C201.359 382.387 199.812 390.3 198.58 397.99C194.202 425.315 193.624 450.909 198.24 472.487C202.852 494.051 213.298 514.092 232.95 525.438C252.602 536.785 275.181 535.81 296.162 529.023C317.157 522.23 339.033 508.934 360.508 491.48C366.551 486.569 372.629 481.273 378.718 475.619C384.813 481.28 390.898 486.581 396.947 491.498C418.422 508.951 440.298 522.248 461.294 529.04C482.275 535.828 504.854 536.802 524.506 525.456C544.158 514.11 554.603 494.069 559.216 472.505C563.831 450.926 563.254 425.333 558.876 398.008C557.643 390.311 556.094 382.391 554.239 374.282C562.182 371.835 569.809 369.218 577.086 366.44C602.939 356.569 625.392 344.272 641.772 329.486C658.141 314.709 670.274 295.643 670.274 272.95C670.274 250.258 658.141 231.191 641.772 216.415C625.392 201.629 602.939 189.332 577.086 179.461C569.809 176.683 562.183 174.066 554.24 171.619C556.094 163.512 557.643 155.593 558.876 147.897C563.254 120.572 563.831 94.9791 559.215 73.4003C554.603 51.8364 544.158 31.7954 524.505 20.4492C504.853 9.10309 482.275 10.0774 461.293 16.865C440.298 23.6572 418.422 36.954 396.947 54.4078C390.898 59.3242 384.813 64.6256 378.718 70.286Z" fill="white" stroke="white" stroke-width="20"/>
<path d="M378.717 375.657C527.455 375.657 648.031 329.619 648.031 272.828C648.031 216.037 527.455 169.999 378.717 169.999C229.979 169.999 109.403 216.037 109.403 272.828C109.403 329.619 229.979 375.657 378.717 375.657Z" stroke="#61DAFB" stroke-width="24.4831"/>
<path d="M289.674 324.254C364.043 453.065 464.201 534.468 513.383 506.073C562.566 477.677 542.148 350.236 467.779 221.425C393.41 92.6145 293.252 11.2117 244.069 39.6072C194.887 68.0026 215.305 195.444 289.674 324.254Z" stroke="#61DAFB" stroke-width="24.4831"/>
<path d="M289.674 221.406C215.305 350.217 194.887 477.658 244.069 506.054C293.252 534.449 393.41 453.046 467.779 324.235C542.148 195.424 562.566 67.9835 513.383 39.588C464.201 11.1926 364.043 92.5954 289.674 221.406Z" stroke="#61DAFB" stroke-width="24.4831"/>
<path d="M378.722 323.076C406.441 323.076 428.912 300.605 428.912 272.886C428.912 245.166 406.441 222.695 378.722 222.695C351.002 222.695 328.531 245.166 328.531 272.886C328.531 300.605 351.002 323.076 378.722 323.076Z" fill="#61DAFB"/>
</g>
<g clip-path="url(#clip1_3764_10373)">
<g filter="url(#filter1_b_3764_10373)">
<path d="M572.934 301.995L411.908 331.895C401.115 333.899 393.991 344.273 395.995 355.065L425.895 516.092C427.899 526.884 438.273 534.009 449.066 532.005L610.092 502.105C620.884 500.101 628.009 489.727 626.005 478.934L596.105 317.908C594.101 307.115 583.727 299.991 572.934 301.995Z" fill="#3178C6"/>
<path d="M571.109 292.163L410.083 322.063C393.86 325.075 383.151 340.668 386.163 356.891L416.063 517.917C419.075 534.14 434.668 544.849 450.891 541.837L611.917 511.937C628.14 508.925 638.849 493.331 635.837 477.109L605.937 316.082C602.925 299.86 587.332 289.15 571.109 292.163Z" stroke="white" stroke-opacity="0.7" stroke-width="20"/>
</g>
<path fill-rule="evenodd" clip-rule="evenodd" d="M545.806 471.761L549.439 491.326C552.923 492.366 556.912 492.89 561.406 492.899C565.9 492.908 570.553 492.466 575.365 491.572C580.055 490.702 584.427 489.426 588.481 487.745C592.535 486.065 595.961 483.9 598.76 481.251C601.558 478.602 603.577 475.444 604.815 471.777C606.054 468.111 606.219 463.832 605.311 458.941C604.652 455.394 603.545 452.385 601.989 449.912C600.433 447.439 598.463 445.348 596.079 443.64C593.695 441.933 590.953 440.512 587.853 439.38C584.753 438.248 581.313 437.274 577.534 436.458C574.768 435.875 572.273 435.274 570.048 434.654C567.824 434.033 565.902 433.336 564.281 432.562C562.661 431.787 561.356 430.891 560.365 429.873C559.375 428.855 558.743 427.613 558.471 426.145C558.221 424.8 558.342 423.523 558.835 422.314C559.328 421.105 560.134 419.996 561.255 418.987C562.375 417.978 563.813 417.089 565.568 416.32C567.324 415.551 569.323 414.959 571.566 414.542C573.197 414.24 574.943 414.042 576.803 413.949C578.663 413.857 580.558 413.895 582.488 414.064C584.417 414.233 586.32 414.544 588.197 414.996C590.074 415.449 591.841 416.048 593.498 416.795L590.104 398.513C586.915 397.925 583.506 397.683 579.877 397.787C576.247 397.892 572.148 398.368 567.581 399.216C562.932 400.08 558.621 401.397 554.647 403.168C550.673 404.939 547.303 407.177 544.536 409.884C541.769 412.591 539.773 415.755 538.547 419.377C537.322 422.999 537.132 427.092 537.98 431.658C539.063 437.487 541.668 442.147 545.797 445.64C549.925 449.132 555.68 451.669 563.061 453.25C565.957 453.851 568.665 454.465 571.186 455.094C573.707 455.722 575.92 456.45 577.824 457.277C579.728 458.104 581.295 459.099 582.524 460.262C583.752 461.426 584.525 462.863 584.843 464.576C585.078 465.839 584.989 467.068 584.578 468.262C584.167 469.455 583.413 470.565 582.317 471.591C581.221 472.617 579.787 473.526 578.015 474.319C576.242 475.112 574.113 475.739 571.625 476.201C567.384 476.988 563.046 477.025 558.61 476.309C554.175 475.594 549.907 474.078 545.806 471.761ZM503.962 429.661L529.062 425.001L526.081 408.944L456.12 421.935L459.102 437.991L484.079 433.353L497.354 504.845L517.237 501.153L503.962 429.661Z" fill="white"/>
</g>
</g>
<defs>
<filter id="filter0_dddd_3764_10373" x="24" y="-10" width="710.449" height="736.637" filterUnits="userSpaceOnUse" color-interpolation-filters="sRGB">
<feFlood flood-opacity="0" result="BackgroundImageFix"/>
<feColorMatrix in="SourceAlpha" type="matrix" values="0 0 0 0 0 0 0 0 0 0 0 0 0 0 0 0 0 0 127 0" result="hardAlpha"/>
<feOffset dy="8"/>
<feGaussianBlur stdDeviation="9"/>
<feColorMatrix type="matrix" values="0 0 0 0 0.188235 0 0 0 0 0.537255 0 0 0 0 0.631373 0 0 0 0.2 0"/>
<feBlend mode="normal" in2="BackgroundImageFix" result="effect1_dropShadow_3764_10373"/>
<feColorMatrix in="SourceAlpha" type="matrix" values="0 0 0 0 0 0 0 0 0 0 0 0 0 0 0 0 0 0 127 0" result="hardAlpha"/>
<feOffset dy="32"/>
<feGaussianBlur stdDeviation="16"/>
<feColorMatrix type="matrix" values="0 0 0 0 0.188235 0 0 0 0 0.537255 0 0 0 0 0.631373 0 0 0 0.17 0"/>
<feBlend mode="normal" in2="effect1_dropShadow_3764_10373" result="effect2_dropShadow_3764_10373"/>
<feColorMatrix in="SourceAlpha" type="matrix" values="0 0 0 0 0 0 0 0 0 0 0 0 0 0 0 0 0 0 127 0" result="hardAlpha"/>
<feOffset dy="73"/>
<feGaussianBlur stdDeviation="22"/>
<feColorMatrix type="matrix" values="0 0 0 0 0.188235 0 0 0 0 0.537255 0 0 0 0 0.631373 0 0 0 0.1 0"/>
<feBlend mode="normal" in2="effect2_dropShadow_3764_10373" result="effect3_dropShadow_3764_10373"/>
<feColorMatrix in="SourceAlpha" type="matrix" values="0 0 0 0 0 0 0 0 0 0 0 0 0 0 0 0 0 0 127 0" result="hardAlpha"/>
<feOffset dy="129"/>
<feGaussianBlur stdDeviation="26"/>
<feColorMatrix type="matrix" values="0 0 0 0 0.188235 0 0 0 0 0.537255 0 0 0 0 0.631373 0 0 0 0.03 0"/>
<feBlend mode="normal" in2="effect3_dropShadow_3764_10373" result="effect4_dropShadow_3764_10373"/>
<feBlend mode="normal" in="SourceGraphic" in2="effect4_dropShadow_3764_10373" result="shape"/>
</filter>
<filter id="filter1_b_3764_10373" x="366.805" y="272.803" width="288.391" height="288.394" filterUnits="userSpaceOnUse" color-interpolation-filters="sRGB">
<feFlood flood-opacity="0" result="BackgroundImageFix"/>
<feGaussianBlur in="BackgroundImageFix" stdDeviation="4.42458"/>
<feComposite in2="SourceAlpha" operator="in" result="effect1_backgroundBlur_3764_10373"/>
<feBlend mode="normal" in="SourceGraphic" in2="effect1_backgroundBlur_3764_10373" result="shape"/>
</filter>
<clipPath id="clip0_3764_10373">
<rect width="758.514" height="700" fill="white"/>
</clipPath>
<clipPath id="clip1_3764_10373">
<rect width="244" height="244" fill="white" transform="translate(368.777 319.324) rotate(-10.5191)"/>
</clipPath>
</defs>
</svg>
